<svg xmlns="http://www.w3.org/2000/svg" viewBox="0 0 512 512">
  <defs>
    <linearGradient id="heartwave" x1="76" y1="350" x2="426" y2="108" gradientUnits="userSpaceOnUse">
      <stop offset="0" stop-color="#ff2a67"/>
      <stop offset="0.48" stop-color="#c31355"/>
      <stop offset="1" stop-color="#a855f7"/>
    </linearGradient>
    <filter id="glow" x="-30%" y="-30%" width="160%" height="160%">
      <feGaussianBlur stdDeviation="8" result="blur"/>
      <feColorMatrix in="blur" values="1 0 0 0 0.85 0 1 0 0 0.05 0 0 1 0 0.62 0 0 0 0.95 0"/>
      <feMerge>
        <feMergeNode/>
        <feMergeNode in="SourceGraphic"/>
      </feMerge>
    </filter>
  </defs>
  <rect width="512" height="512" fill="#000"/>
  <g filter="url(#glow)" fill="none" stroke="url(#heartwave)" stroke-linecap="round" stroke-linejoin="round">
    <path stroke-width="24" d="M258 408 120 282c-34-31-39-84-10-120 31-38 88-42 124-9l24 22 50-45V78h70v278"/>
    <path stroke-width="24" d="M379 119c36 12 61 43 70 80 13 52-15 97-55 134L258 408"/>
    <path stroke-width="28" d="M377 78v90c20-21 47-31 78-27-12-30-38-52-78-63Z"/>
    <circle cx="279" cy="296" r="43" stroke-width="24"/>
  </g>
  <g fill="none" stroke="#ffd7ee" stroke-linecap="round" opacity="0.9">
    <path stroke-width="7" d="M111 207c14-43 61-64 104-48"/>
    <path stroke-width="7" d="M330 86h42"/>
    <path stroke-width="6" d="M423 214c11 42-8 84-43 119"/>
  </g>
</svg>
