<svg xmlns="http://www.w3.org/2000/svg" viewBox="0 0 96 96" role="img" aria-label="Default avatar 3">
  <circle cx="48" cy="48" r="48" fill="#e8edf7"/>
  <path d="M18 82c5-13 17-22 30-22s25 9 30 22" fill="#ef476f"/>
  <circle cx="48" cy="39" r="15" fill="#ffd9bf"/>
  <path d="M49 15c9 0 17 7 17 17 0 6-2 13-5 18h-4c1-4 2-8 2-11 0-5-3-9-8-9-6 0-10 5-12 11-2 5-2 10-2 14h-6c-2-4-3-8-3-13 0-16 10-27 21-27z" fill="#3c2a21"/>
  <path d="M33 47c3-3 6-5 9-6 7-3 15-1 22 7-5-15-11-27-15-33-12 4-18 16-16 32z" fill="#3c2a21"/>
</svg>
